<?xml version="1.0" encoding="UTF-8" standalone="no"?>
<!DOCTYPE svg PUBLIC "-//W3C//DTD SVG 1.1//EN"
 "http://www.w3.org/Graphics/SVG/1.1/DTD/svg11.dtd">
<!-- Generated by graphviz version 2.40.1 (20161225.0304)
 -->
<!-- Title: Groph Pages: 1 -->
<svg width="870pt" height="397pt"
 viewBox="0.00 0.00 870.00 397.00" xmlns="http://www.w3.org/2000/svg" xmlns:xlink="http://www.w3.org/1999/xlink">
<g id="graph0" class="graph" transform="scale(1 1) rotate(0) translate(4 393)">
<title>Groph</title>
<polygon fill="#ffffff" stroke="transparent" points="-4,4 -4,-393 866,-393 866,4 -4,4"/>
<text text-anchor="middle" x="431" y="-7.8" font-family="Times,serif" font-size="14.00" fill="#000000">groph package dependency sketch</text>
<g id="clust1" class="cluster">
<title>cluster_g</title>
<polygon fill="#d3d3d3" stroke="#ffffff" points="108,-231 108,-306 436,-306 436,-231 108,-231"/>
<text text-anchor="middle" x="363" y="-290.8" font-family="Times,serif" font-size="14.00" fill="#000000">Graph Implementations</text>
</g>
<g id="clust2" class="cluster">
<title>cluster_a</title>
<polygon fill="#d3d3d3" stroke="#ffffff" points="444,-231 444,-381 854,-381 854,-231 444,-231"/>
<text text-anchor="middle" x="649" y="-365.8" font-family="Times,serif" font-size="14.00" fill="#000000">Algorithms</text>
</g>
<!-- groph -->
<g id="node1" class="node">
<title>groph</title>
<polygon fill="#ffffff" stroke="#000000" points="410,-59 368,-59 368,-63 356,-63 356,-23 410,-23 410,-59"/>
<polyline fill="none" stroke="#000000" points="356,-59 368,-59 "/>
<text text-anchor="middle" x="383" y="-37.3" font-family="Times,serif" font-size="14.00" fill="#000000">groph</text>
</g>
<!-- util -->
<g id="node2" class="node">
<title>util</title>
<polygon fill="#ffffff" stroke="#000000" points="223,-131 165,-131 165,-135 153,-135 153,-95 223,-95 223,-131"/>
<polyline fill="none" stroke="#000000" points="153,-131 165,-131 "/>
<text text-anchor="middle" x="188" y="-109.3" font-family="Times,serif" font-size="14.00" fill="#000000">groph/util</text>
</g>
<!-- util&#45;&gt;groph -->
<g id="edge13" class="edge">
<title>util&#45;&gt;groph</title>
<path fill="none" stroke="#000000" stroke-dasharray="5,2" d="M223.313,-99.9613C258.1245,-87.1079 311.0882,-67.5521 346.3542,-54.5308"/>
<polygon fill="#000000" stroke="#000000" points="355.8019,-51.0424 347.9797,-58.7276 351.1115,-52.7743 346.421,-54.5062 346.421,-54.5062 346.421,-54.5062 351.1115,-52.7743 344.8623,-50.2847 355.8019,-51.0424 355.8019,-51.0424"/>
</g>
<!-- io -->
<g id="node3" class="node">
<title>io</title>
<polygon fill="#ffffff" stroke="#000000" points="84,-203 12,-203 12,-207 0,-207 0,-167 84,-167 84,-203"/>
<polyline fill="none" stroke="#000000" points="0,-203 12,-203 "/>
<text text-anchor="middle" x="42" y="-181.3" font-family="Times,serif" font-size="14.00" fill="#000000">groph/util/io</text>
</g>
<!-- io&#45;&gt;groph -->
<g id="edge15" class="edge">
<title>io&#45;&gt;groph</title>
<path fill="none" stroke="#000000" stroke-dasharray="5,2" d="M55.0356,-166.7007C70.826,-145.9656 99.3975,-112.7539 132,-95 168.5423,-75.1007 285.2837,-55.5053 345.811,-46.3544"/>
<polygon fill="#000000" stroke="#000000" points="355.725,-44.873 346.4998,-50.8015 350.7799,-45.612 345.8348,-46.3509 345.8348,-46.3509 345.8348,-46.3509 350.7799,-45.612 345.1697,-41.9003 355.725,-44.873 355.725,-44.873"/>
</g>
<!-- io&#45;&gt;util -->
<g id="edge14" class="edge">
<title>io&#45;&gt;util</title>
<path fill="none" stroke="#000000" stroke-dasharray="5,2" d="M78.842,-166.8314C98.4745,-157.1495 122.7751,-145.1657 143.4607,-134.9646"/>
<polygon fill="#000000" stroke="#000000" points="152.6808,-130.4177 145.7024,-138.8766 148.1964,-132.6292 143.712,-134.8407 143.712,-134.8407 143.712,-134.8407 148.1964,-132.6292 141.7217,-130.8048 152.6808,-130.4177 152.6808,-130.4177"/>
</g>
<!-- gv -->
<g id="node4" class="node">
<title>gv</title>
<polygon fill="#ffffff" stroke="#000000" points="222.5,-203 113.5,-203 113.5,-207 101.5,-207 101.5,-167 222.5,-167 222.5,-203"/>
<polyline fill="none" stroke="#000000" points="101.5,-203 113.5,-203 "/>
<text text-anchor="middle" x="162" y="-181.3" font-family="Times,serif" font-size="14.00" fill="#000000">groph/util/graphviz</text>
</g>
<!-- gv&#45;&gt;groph -->
<g id="edge17" class="edge">
<title>gv&#45;&gt;groph</title>
<path fill="none" stroke="#000000" stroke-dasharray="5,2" d="M150.5711,-166.7536C139.8074,-146.989 127.5848,-115.5378 144,-95 168.8041,-63.9663 284.6465,-49.4714 345.474,-43.902"/>
<polygon fill="#000000" stroke="#000000" points="355.8039,-42.9937 346.2365,-48.3524 350.8231,-43.4317 345.8423,-43.8697 345.8423,-43.8697 345.8423,-43.8697 350.8231,-43.4317 345.4481,-39.387 355.8039,-42.9937 355.8039,-42.9937"/>
</g>
<!-- gv&#45;&gt;util -->
<g id="edge16" class="edge">
<title>gv&#45;&gt;util</title>
<path fill="none" stroke="#000000" stroke-dasharray="5,2" d="M168.5609,-166.8314C171.4027,-158.9617 174.7937,-149.5712 177.9419,-140.8533"/>
<polygon fill="#000000" stroke="#000000" points="181.3508,-131.4133 182.1867,-142.3472 179.6525,-136.116 177.9543,-140.8188 177.9543,-140.8188 177.9543,-140.8188 179.6525,-136.116 173.7218,-139.2904 181.3508,-131.4133 181.3508,-131.4133"/>
</g>
<!-- tst -->
<g id="node5" class="node">
<title>tst</title>
<polygon fill="#ffffff" stroke="#000000" points="355,-203 291,-203 291,-207 279,-207 279,-167 355,-167 355,-203"/>
<polyline fill="none" stroke="#000000" points="279,-203 291,-203 "/>
<text text-anchor="middle" x="317" y="-181.3" font-family="Times,serif" font-size="14.00" fill="#000000">groph/tests</text>
</g>
<!-- tst&#45;&gt;groph -->
<g id="edge18" class="edge">
<title>tst&#45;&gt;groph</title>
<path fill="none" stroke="#000000" stroke-dasharray="5,2" d="M325.3589,-166.7623C336.765,-141.8764 357.2956,-97.0822 370.5258,-68.2165"/>
<polygon fill="#000000" stroke="#000000" points="374.7089,-59.0896 374.6331,-70.0552 372.6256,-63.6349 370.5423,-68.1803 370.5423,-68.1803 370.5423,-68.1803 372.6256,-63.6349 366.4515,-66.3053 374.7089,-59.0896 374.7089,-59.0896"/>
</g>
<!-- tst&#45;&gt;util -->
<g id="edge19" class="edge">
<title>tst&#45;&gt;util</title>
<path fill="none" stroke="#000000" stroke-dasharray="5,2" d="M284.4479,-166.8314C267.7952,-157.5368 247.3415,-146.1208 229.5615,-136.1971"/>
<polygon fill="#000000" stroke="#000000" points="220.5417,-131.1628 231.4669,-132.1071 224.9077,-133.5997 229.2737,-136.0365 229.2737,-136.0365 229.2737,-136.0365 224.9077,-133.5997 227.0806,-139.9659 220.5417,-131.1628 220.5417,-131.1628"/>
</g>
<!-- amx -->
<g id="node6" class="node">
<title>amx</title>
<polygon fill="#ffffff" stroke="#000000" points="220,-275 128,-275 128,-279 116,-279 116,-239 220,-239 220,-275"/>
<polyline fill="none" stroke="#000000" points="116,-275 128,-275 "/>
<text text-anchor="middle" x="168" y="-253.3" font-family="Times,serif" font-size="14.00" fill="#000000">groph/adjmatrix</text>
</g>
<!-- amx&#45;&gt;groph -->
<g id="edge1" class="edge">
<title>amx&#45;&gt;groph</title>
<path fill="none" stroke="#000000" stroke-dasharray="5,2" d="M190.7842,-238.8928C203.2695,-228.6966 218.8368,-215.5283 232,-203 280.0112,-157.3045 331.8346,-99.6898 360.5644,-66.9302"/>
<polygon fill="#000000" stroke="#000000" points="367.3546,-59.1594 364.1632,-69.6507 364.0646,-62.9245 360.7746,-66.6897 360.7746,-66.6897 360.7746,-66.6897 364.0646,-62.9245 357.386,-63.7286 367.3546,-59.1594 367.3546,-59.1594"/>
</g>
<!-- amx&#45;&gt;tst -->
<g id="edge2" class="edge">
<title>amx&#45;&gt;tst</title>
<path fill="none" stroke="#000000" stroke-dasharray="5,2" d="M205.599,-238.8314C225.3497,-229.2874 249.7297,-217.5065 270.6417,-207.4013"/>
<polygon fill="#000000" stroke="#000000" points="279.6714,-203.038 272.6254,-211.4407 275.1694,-205.2135 270.6675,-207.3889 270.6675,-207.3889 270.6675,-207.3889 275.1694,-205.2135 268.7096,-203.3372 279.6714,-203.038 279.6714,-203.038"/>
</g>
<!-- som -->
<g id="node7" class="node">
<title>som</title>
<polygon fill="#ffffff" stroke="#000000" points="355.5,-275 250.5,-275 250.5,-279 238.5,-279 238.5,-239 355.5,-239 355.5,-275"/>
<polyline fill="none" stroke="#000000" points="238.5,-275 250.5,-275 "/>
<text text-anchor="middle" x="297" y="-253.3" font-family="Times,serif" font-size="14.00" fill="#000000">groph/sliceofmaps</text>
</g>
<!-- som&#45;&gt;groph -->
<g id="edge3" class="edge">
<title>som&#45;&gt;groph</title>
<path fill="none" stroke="#000000" stroke-dasharray="5,2" d="M329.0701,-238.8672C342.0754,-229.8139 355.9108,-217.6471 364,-203 387.224,-160.9484 388.0121,-103.4916 385.9009,-69.512"/>
<polygon fill="#000000" stroke="#000000" points="385.1383,-59.3539 390.3744,-68.9889 385.5126,-64.3398 385.887,-69.3258 385.887,-69.3258 385.887,-69.3258 385.5126,-64.3398 381.3996,-69.6627 385.1383,-59.3539 385.1383,-59.3539"/>
</g>
<!-- som&#45;&gt;tst -->
<g id="edge4" class="edge">
<title>som&#45;&gt;tst</title>
<path fill="none" stroke="#000000" stroke-dasharray="5,2" d="M302.0468,-238.8314C304.2094,-231.0463 306.7853,-221.7729 309.1848,-213.1347"/>
<polygon fill="#000000" stroke="#000000" points="311.8852,-203.4133 313.5445,-214.2529 310.5469,-208.2309 309.2087,-213.0484 309.2087,-213.0484 309.2087,-213.0484 310.5469,-208.2309 304.8729,-211.844 311.8852,-203.4133 311.8852,-203.4133"/>
</g>
<!-- getc -->
<g id="node8" class="node">
<title>getc</title>
<polygon fill="#ffffff" stroke="#000000" points="428,-275 386,-275 386,-279 374,-279 374,-239 428,-239 428,-275"/>
<polyline fill="none" stroke="#000000" points="374,-275 386,-275 "/>
<text text-anchor="middle" x="401" y="-253.3" font-family="Times,serif" font-size="14.00" fill="#000000">…</text>
</g>
<!-- getc&#45;&gt;groph -->
<g id="edge5" class="edge">
<title>getc&#45;&gt;groph</title>
<path fill="none" stroke="#000000" stroke-dasharray="5,2" d="M401.8947,-238.9107C403.0817,-208.8591 404.2596,-146.8224 397,-95 395.8096,-86.5027 393.7665,-77.4195 391.6033,-69.1735"/>
<polygon fill="#000000" stroke="#000000" points="388.8544,-59.2835 395.8681,-67.7131 390.1934,-64.1009 391.5325,-68.9183 391.5325,-68.9183 391.5325,-68.9183 390.1934,-64.1009 387.1968,-70.1234 388.8544,-59.2835 388.8544,-59.2835"/>
</g>
<!-- getc&#45;&gt;tst -->
<g id="edge6" class="edge">
<title>getc&#45;&gt;tst</title>
<path fill="none" stroke="#000000" stroke-dasharray="5,2" d="M379.8033,-238.8314C369.5566,-230.0485 357.0997,-219.3712 345.9903,-209.8489"/>
<polygon fill="#000000" stroke="#000000" points="338.19,-203.1628 348.7111,-206.2541 341.9863,-206.4168 345.7826,-209.6708 345.7826,-209.6708 345.7826,-209.6708 341.9863,-206.4168 342.854,-213.0874 338.19,-203.1628 338.19,-203.1628"/>
</g>
<!-- trv -->
<g id="node9" class="node">
<title>trv</title>
<polygon fill="#ffffff" stroke="#000000" points="550,-350 464,-350 464,-354 452,-354 452,-314 550,-314 550,-350"/>
<polyline fill="none" stroke="#000000" points="452,-350 464,-350 "/>
<text text-anchor="middle" x="501" y="-328.3" font-family="Times,serif" font-size="14.00" fill="#000000">groph/traversal</text>
</g>
<!-- trv&#45;&gt;groph -->
<g id="edge8" class="edge">
<title>trv&#45;&gt;groph</title>
<path fill="none" stroke="#000000" stroke-dasharray="5,2" d="M495.1039,-313.8292C481.8754,-273.6774 448.1454,-174.6451 412,-95 407.9308,-86.0336 403.0144,-76.4941 398.395,-67.9672"/>
<polygon fill="#000000" stroke="#000000" points="393.5531,-59.1872 402.3227,-65.7708 395.9677,-63.5655 398.3822,-67.9439 398.3822,-67.9439 398.3822,-67.9439 395.9677,-63.5655 394.4417,-70.117 393.5531,-59.1872 393.5531,-59.1872"/>
</g>
<!-- shp -->
<g id="node10" class="node">
<title>shp</title>
<polygon fill="#ffffff" stroke="#000000" points="667.5,-275 562.5,-275 562.5,-279 550.5,-279 550.5,-239 667.5,-239 667.5,-275"/>
<polyline fill="none" stroke="#000000" points="550.5,-275 562.5,-275 "/>
<text text-anchor="middle" x="609" y="-253.3" font-family="Times,serif" font-size="14.00" fill="#000000">groph/shortestpath</text>
</g>
<!-- shp&#45;&gt;groph -->
<g id="edge9" class="edge">
<title>shp&#45;&gt;groph</title>
<path fill="none" stroke="#000000" stroke-dasharray="5,2" d="M599.8468,-238.9993C582.5973,-206.5622 542.4361,-137.71 492,-95 470.6609,-76.9298 442.2371,-63.1064 419.7655,-53.9707"/>
<polygon fill="#000000" stroke="#000000" points="410.2227,-50.2244 421.1755,-49.69 414.8769,-52.0516 419.5311,-53.8787 419.5311,-53.8787 419.5311,-53.8787 414.8769,-52.0516 417.8866,-58.0675 410.2227,-50.2244 410.2227,-50.2244"/>
</g>
<!-- tsp -->
<g id="node11" class="node">
<title>tsp</title>
<polygon fill="#ffffff" stroke="#000000" points="774,-350 718,-350 718,-354 706,-354 706,-314 774,-314 774,-350"/>
<polyline fill="none" stroke="#000000" points="706,-350 718,-350 "/>
<text text-anchor="middle" x="740" y="-328.3" font-family="Times,serif" font-size="14.00" fill="#000000">groph/tsp</text>
</g>
<!-- tsp&#45;&gt;groph -->
<g id="edge10" class="edge">
<title>tsp&#45;&gt;groph</title>
<path fill="none" stroke="#000000" stroke-dasharray="5,2" d="M730.7378,-313.7946C719.5555,-292.7143 699.4344,-257.4978 677,-231 617.9964,-161.3096 601.0483,-142.3987 523,-95 490.3344,-75.1622 449.1319,-60.3274 419.9041,-51.2763"/>
<polygon fill="#000000" stroke="#000000" points="410.0989,-48.3173 420.9726,-46.8984 414.8856,-49.7619 419.6724,-51.2065 419.6724,-51.2065 419.6724,-51.2065 414.8856,-49.7619 418.3723,-55.5146 410.0989,-48.3173 410.0989,-48.3173"/>
</g>
<!-- tsp&#45;&gt;amx -->
<g id="edge11" class="edge">
<title>tsp&#45;&gt;amx</title>
<path fill="none" stroke="#000000" stroke-dasharray="5,2" d="M705.6294,-316.2931C702.7512,-315.3841 699.8514,-314.5982 697,-314 646.2091,-303.3449 278.874,-323.4521 230,-306 215.9973,-300.9999 202.7389,-291.4516 192.1042,-282.1022"/>
<polygon fill="#000000" stroke="#000000" points="184.5144,-275.07 194.9082,-278.5655 188.1821,-278.4682 191.8498,-281.8665 191.8498,-281.8665 191.8498,-281.8665 188.1821,-278.4682 188.7914,-285.1674 184.5144,-275.07 184.5144,-275.07"/>
</g>
<!-- tsp&#45;&gt;shp -->
<g id="edge7" class="edge">
<title>tsp&#45;&gt;shp</title>
<path fill="none" stroke="#000000" stroke-dasharray="5,2" d="M708.2886,-313.8446C690.6388,-303.7397 668.4815,-291.0543 649.5787,-280.2321"/>
<polygon fill="#000000" stroke="#000000" points="640.8735,-275.2482 651.7877,-276.3115 645.2126,-277.7325 649.5518,-280.2167 649.5518,-280.2167 649.5518,-280.2167 645.2126,-277.7325 647.316,-284.122 640.8735,-275.2482 640.8735,-275.2482"/>
</g>
<!-- mst -->
<g id="node12" class="node">
<title>mst</title>
<polygon fill="#ffffff" stroke="#000000" points="687.5,-350 580.5,-350 580.5,-354 568.5,-354 568.5,-314 687.5,-314 687.5,-350"/>
<polyline fill="none" stroke="#000000" points="568.5,-350 580.5,-350 "/>
<text text-anchor="middle" x="628" y="-328.3" font-family="Times,serif" font-size="14.00" fill="#000000">groph/minspantree</text>
</g>
<!-- aetc -->
<g id="node13" class="node">
<title>aetc</title>
<polygon fill="#ffffff" stroke="#000000" points="846,-350 804,-350 804,-354 792,-354 792,-314 846,-314 846,-350"/>
<polyline fill="none" stroke="#000000" points="792,-350 804,-350 "/>
<text text-anchor="middle" x="819" y="-328.3" font-family="Times,serif" font-size="14.00" fill="#000000">…</text>
</g>
<!-- aetc&#45;&gt;groph -->
<g id="edge12" class="edge">
<title>aetc&#45;&gt;groph</title>
<path fill="none" stroke="#000000" stroke-dasharray="5,2" d="M805.1512,-313.8661C770.0403,-269.224 672.5854,-153.4043 564,-95 517.5395,-70.0106 457.9937,-55.1037 420.1563,-47.4757"/>
<polygon fill="#000000" stroke="#000000" points="410.0888,-45.515 420.7647,-43.0098 414.9966,-46.4709 419.9044,-47.4268 419.9044,-47.4268 419.9044,-47.4268 414.9966,-46.4709 419.0441,-51.8438 410.0888,-45.515 410.0888,-45.515"/>
</g>
</g>
</svg>
