<?xml version="1.0" encoding="UTF-8" standalone="no"?>
<!DOCTYPE svg PUBLIC "-//W3C//DTD SVG 1.1//EN"
 "http://www.w3.org/Graphics/SVG/1.1/DTD/svg11.dtd">
<!-- Generated by graphviz version 2.40.1 (20161225.0304)
 -->
<!-- Title: Groph Pages: 1 -->
<svg width="906pt" height="397pt"
 viewBox="0.00 0.00 906.00 397.00" xmlns="http://www.w3.org/2000/svg" xmlns:xlink="http://www.w3.org/1999/xlink">
<g id="graph0" class="graph" transform="scale(1 1) rotate(0) translate(4 393)">
<title>Groph</title>
<polygon fill="#ffffff" stroke="transparent" points="-4,4 -4,-393 902,-393 902,4 -4,4"/>
<text text-anchor="middle" x="449" y="-7.8" font-family="Times,serif" font-size="14.00" fill="#000000">groph package dependency sketch</text>
<g id="clust1" class="cluster">
<title>cluster_g</title>
<polygon fill="#d3d3d3" stroke="#ffffff" points="114,-231 114,-306 442,-306 442,-231 114,-231"/>
<text text-anchor="middle" x="369" y="-290.8" font-family="Times,serif" font-size="14.00" fill="#000000">Graph Implementations</text>
</g>
<g id="clust2" class="cluster">
<title>cluster_a</title>
<polygon fill="#d3d3d3" stroke="#ffffff" points="480,-231 480,-381 890,-381 890,-231 480,-231"/>
<text text-anchor="middle" x="685" y="-365.8" font-family="Times,serif" font-size="14.00" fill="#000000">Algorithms</text>
</g>
<!-- groph -->
<g id="node1" class="node">
<title>groph</title>
<polygon fill="#ffffff" stroke="#000000" points="342,-59 300,-59 300,-63 288,-63 288,-23 342,-23 342,-59"/>
<polyline fill="none" stroke="#000000" points="288,-59 300,-59 "/>
<text text-anchor="middle" x="315" y="-37.3" font-family="Times,serif" font-size="14.00" fill="#000000">groph</text>
</g>
<!-- util -->
<g id="node2" class="node">
<title>util</title>
<polygon fill="#ffffff" stroke="#000000" points="191,-131 133,-131 133,-135 121,-135 121,-95 191,-95 191,-131"/>
<polyline fill="none" stroke="#000000" points="121,-131 133,-131 "/>
<text text-anchor="middle" x="156" y="-109.3" font-family="Times,serif" font-size="14.00" fill="#000000">groph/util</text>
</g>
<!-- util&#45;&gt;groph -->
<g id="edge6" class="edge">
<title>util&#45;&gt;groph</title>
<path fill="none" stroke="#000000" stroke-dasharray="5,2" d="M191.2873,-97.0209C217.2803,-85.2504 252.5193,-69.2932 278.7393,-57.4199"/>
<polygon fill="#000000" stroke="#000000" points="287.9575,-53.2457 280.7042,-61.4701 283.4027,-55.3082 278.8479,-57.3708 278.8479,-57.3708 278.8479,-57.3708 283.4027,-55.3082 276.9916,-53.2715 287.9575,-53.2457 287.9575,-53.2457"/>
</g>
<!-- io -->
<g id="node3" class="node">
<title>io</title>
<polygon fill="#ffffff" stroke="#000000" points="84,-350 12,-350 12,-354 0,-354 0,-314 84,-314 84,-350"/>
<polyline fill="none" stroke="#000000" points="0,-350 12,-350 "/>
<text text-anchor="middle" x="42" y="-328.3" font-family="Times,serif" font-size="14.00" fill="#000000">groph/util/io</text>
</g>
<!-- io&#45;&gt;groph -->
<g id="edge8" class="edge">
<title>io&#45;&gt;groph</title>
<path fill="none" stroke="#000000" stroke-dasharray="5,2" d="M40.246,-313.8061C38.7976,-293.3378 37.9728,-259.2599 45,-231 61.2602,-165.61 59.8834,-137.7096 112,-95 137.2674,-74.2934 226.5914,-56.1217 277.9391,-47.0783"/>
<polygon fill="#000000" stroke="#000000" points="287.9775,-45.3414 278.8912,-51.4806 283.0507,-46.1939 278.1239,-47.0464 278.1239,-47.0464 278.1239,-47.0464 283.0507,-46.1939 277.3567,-42.6123 287.9775,-45.3414 287.9775,-45.3414"/>
</g>
<!-- io&#45;&gt;util -->
<g id="edge7" class="edge">
<title>io&#45;&gt;util</title>
<path fill="none" stroke="#000000" stroke-dasharray="5,2" d="M46.1174,-313.5233C53.7686,-281.7464 72.2542,-215.4909 103,-167 109.583,-156.6176 118.4359,-146.6095 127.0193,-138.0897"/>
<polygon fill="#000000" stroke="#000000" points="134.4291,-131.0136 130.3049,-141.1744 130.8131,-134.4667 127.1971,-137.9199 127.1971,-137.9199 127.1971,-137.9199 130.8131,-134.4667 124.0892,-134.6655 134.4291,-131.0136 134.4291,-131.0136"/>
</g>
<!-- getc -->
<g id="node8" class="node">
<title>getc</title>
<polygon fill="#ffffff" stroke="#000000" points="176,-275 134,-275 134,-279 122,-279 122,-239 176,-239 176,-275"/>
<polyline fill="none" stroke="#000000" points="122,-275 134,-275 "/>
<text text-anchor="middle" x="149" y="-253.3" font-family="Times,serif" font-size="14.00" fill="#000000">…</text>
</g>
<!-- io&#45;&gt;getc -->
<g id="edge9" class="edge">
<title>io&#45;&gt;getc</title>
<path fill="none" stroke="#c0c0c0" stroke-dasharray="5,2" d="M67.9017,-313.8446C79.2579,-305.8846 92.8987,-296.3233 105.725,-287.3329"/>
<polygon fill="#c0c0c0" stroke="#c0c0c0" points="114.0039,-281.5299 108.3981,-290.9547 109.9096,-284.3998 105.8152,-287.2697 105.8152,-287.2697 105.8152,-287.2697 109.9096,-284.3998 103.2323,-283.5848 114.0039,-281.5299 114.0039,-281.5299"/>
</g>
<!-- gv -->
<g id="node4" class="node">
<title>gv</title>
<polygon fill="#ffffff" stroke="#000000" points="222.5,-350 113.5,-350 113.5,-354 101.5,-354 101.5,-314 222.5,-314 222.5,-350"/>
<polyline fill="none" stroke="#000000" points="101.5,-350 113.5,-350 "/>
<text text-anchor="middle" x="162" y="-328.3" font-family="Times,serif" font-size="14.00" fill="#000000">groph/util/graphviz</text>
</g>
<!-- gv&#45;&gt;groph -->
<g id="edge11" class="edge">
<title>gv&#45;&gt;groph</title>
<path fill="none" stroke="#000000" stroke-dasharray="5,2" d="M222.5593,-330.7137C301.488,-328.3993 431.252,-322.1599 446,-306 513.7358,-231.7798 401.2356,-116.0811 344.5707,-65.7638"/>
<polygon fill="#000000" stroke="#000000" points="336.9701,-59.1089 347.4582,-62.3109 340.7319,-62.4027 344.4937,-65.6965 344.4937,-65.6965 344.4937,-65.6965 340.7319,-62.4027 341.5293,-69.0821 336.9701,-59.1089 336.9701,-59.1089"/>
</g>
<!-- gv&#45;&gt;util -->
<g id="edge10" class="edge">
<title>gv&#45;&gt;util</title>
<path fill="none" stroke="#000000" stroke-dasharray="5,2" d="M116.5784,-313.8399C114.0464,-311.5216 111.8042,-308.9192 110,-306 77.392,-253.2391 113.4134,-179.2152 137.652,-139.9429"/>
<polygon fill="#000000" stroke="#000000" points="143.2129,-131.1966 141.645,-142.0498 140.5302,-135.416 137.8475,-139.6354 137.8475,-139.6354 137.8475,-139.6354 140.5302,-135.416 134.0501,-137.221 143.2129,-131.1966 143.2129,-131.1966"/>
</g>
<!-- gv&#45;&gt;getc -->
<g id="edge12" class="edge">
<title>gv&#45;&gt;getc</title>
<path fill="none" stroke="#c0c0c0" stroke-dasharray="5,2" d="M158.8531,-313.8446C158.8262,-313.6894 158.7992,-313.5336 158.7721,-313.3773"/>
<polygon fill="#c0c0c0" stroke="#c0c0c0" points="157.4925,-305.9951 163.6344,-315.0796 158.3465,-310.9217 159.2005,-315.8482 159.2005,-315.8482 159.2005,-315.8482 158.3465,-310.9217 154.7666,-316.6168 157.4925,-305.9951 157.4925,-305.9951"/>
</g>
<!-- tst -->
<g id="node5" class="node">
<title>tst</title>
<polygon fill="#ffffff" stroke="#000000" points="291,-203 227,-203 227,-207 215,-207 215,-167 291,-167 291,-203"/>
<polyline fill="none" stroke="#000000" points="215,-203 227,-203 "/>
<text text-anchor="middle" x="253" y="-181.3" font-family="Times,serif" font-size="14.00" fill="#000000">groph/tests</text>
</g>
<!-- tst&#45;&gt;groph -->
<g id="edge13" class="edge">
<title>tst&#45;&gt;groph</title>
<path fill="none" stroke="#000000" stroke-dasharray="5,2" d="M260.8523,-166.7623C271.5205,-141.9846 290.6859,-97.4714 303.1193,-68.5939"/>
<polygon fill="#000000" stroke="#000000" points="307.2114,-59.0896 307.39,-70.0541 305.2341,-63.682 303.2568,-68.2745 303.2568,-68.2745 303.2568,-68.2745 305.2341,-63.682 299.1236,-66.4949 307.2114,-59.0896 307.2114,-59.0896"/>
</g>
<!-- tst&#45;&gt;util -->
<g id="edge14" class="edge">
<title>tst&#45;&gt;util</title>
<path fill="none" stroke="#000000" stroke-dasharray="5,2" d="M228.5228,-166.8314C216.4605,-157.8779 201.746,-146.9558 188.7314,-137.2955"/>
<polygon fill="#000000" stroke="#000000" points="180.4694,-131.1628 191.1812,-133.5097 184.4842,-134.1429 188.4991,-137.1231 188.4991,-137.1231 188.4991,-137.1231 184.4842,-134.1429 185.817,-140.7364 180.4694,-131.1628 180.4694,-131.1628"/>
</g>
<!-- amx -->
<g id="node6" class="node">
<title>amx</title>
<polygon fill="#ffffff" stroke="#000000" points="434,-275 342,-275 342,-279 330,-279 330,-239 434,-239 434,-275"/>
<polyline fill="none" stroke="#000000" points="330,-275 342,-275 "/>
<text text-anchor="middle" x="382" y="-253.3" font-family="Times,serif" font-size="14.00" fill="#000000">groph/adjmatrix</text>
</g>
<!-- amx&#45;&gt;groph -->
<g id="edge1" class="edge">
<title>amx&#45;&gt;groph</title>
<path fill="none" stroke="#000000" stroke-dasharray="5,2" d="M373.9361,-231.0031C361.2362,-190.0601 336.6813,-110.8979 323.6355,-68.8399"/>
<polygon fill="#000000" stroke="#000000" points="320.6283,-59.1451 327.889,-67.3629 322.1097,-63.9206 323.591,-68.6961 323.591,-68.6961 323.591,-68.6961 322.1097,-63.9206 319.293,-70.0293 320.6283,-59.1451 320.6283,-59.1451"/>
</g>
<!-- som -->
<g id="node7" class="node">
<title>som</title>
<polygon fill="#ffffff" stroke="#000000" points="311.5,-275 206.5,-275 206.5,-279 194.5,-279 194.5,-239 311.5,-239 311.5,-275"/>
<polyline fill="none" stroke="#000000" points="194.5,-275 206.5,-275 "/>
<text text-anchor="middle" x="253" y="-253.3" font-family="Times,serif" font-size="14.00" fill="#000000">groph/sliceofmaps</text>
</g>
<!-- som&#45;&gt;tst -->
<g id="edge2" class="edge">
<title>som&#45;&gt;tst</title>
<path fill="none" stroke="#000000" stroke-dasharray="5,2" d="M253,-231.0017C253,-225.2914 253,-219.2165 253,-213.4166"/>
<polygon fill="#000000" stroke="#000000" points="253,-203.4133 257.5001,-213.4132 253,-208.4133 253.0001,-213.4133 253.0001,-213.4133 253.0001,-213.4133 253,-208.4133 248.5001,-213.4133 253,-203.4133 253,-203.4133"/>
</g>
<!-- trv -->
<g id="node9" class="node">
<title>trv</title>
<polygon fill="#ffffff" stroke="#000000" points="882,-350 796,-350 796,-354 784,-354 784,-314 882,-314 882,-350"/>
<polyline fill="none" stroke="#000000" points="784,-350 796,-350 "/>
<text text-anchor="middle" x="833" y="-328.3" font-family="Times,serif" font-size="14.00" fill="#000000">groph/traversal</text>
</g>
<!-- shp -->
<g id="node10" class="node">
<title>shp</title>
<polygon fill="#ffffff" stroke="#000000" points="698.5,-275 593.5,-275 593.5,-279 581.5,-279 581.5,-239 698.5,-239 698.5,-275"/>
<polyline fill="none" stroke="#000000" points="581.5,-275 593.5,-275 "/>
<text text-anchor="middle" x="640" y="-253.3" font-family="Times,serif" font-size="14.00" fill="#000000">groph/shortestpath</text>
</g>
<!-- shp&#45;&gt;groph -->
<g id="edge4" class="edge">
<title>shp&#45;&gt;groph</title>
<path fill="none" stroke="#000000" stroke-dasharray="5,2" d="M620.1503,-231.0009C591.8031,-195.5368 536.4271,-132.1678 476,-95 437.0847,-71.0638 386.2863,-56.319 352.2519,-48.4089"/>
<polygon fill="#000000" stroke="#000000" points="342.2594,-46.1709 353.0012,-43.9653 347.1386,-47.2637 352.0177,-48.3565 352.0177,-48.3565 352.0177,-48.3565 347.1386,-47.2637 351.0341,-52.7477 342.2594,-46.1709 342.2594,-46.1709"/>
</g>
<!-- tsp -->
<g id="node11" class="node">
<title>tsp</title>
<polygon fill="#ffffff" stroke="#000000" points="766,-350 710,-350 710,-354 698,-354 698,-314 766,-314 766,-350"/>
<polyline fill="none" stroke="#000000" points="698,-350 710,-350 "/>
<text text-anchor="middle" x="732" y="-328.3" font-family="Times,serif" font-size="14.00" fill="#000000">groph/tsp</text>
</g>
<!-- tsp&#45;&gt;shp -->
<g id="edge3" class="edge">
<title>tsp&#45;&gt;shp</title>
<path fill="none" stroke="#000000" stroke-dasharray="5,2" d="M709.7294,-313.8446C697.951,-304.2427 683.3145,-292.3107 670.4966,-281.8614"/>
<polygon fill="#000000" stroke="#000000" points="662.3844,-275.2482 672.9786,-278.0789 666.2598,-278.4075 670.1353,-281.5668 670.1353,-281.5668 670.1353,-281.5668 666.2598,-278.4075 667.2919,-285.0547 662.3844,-275.2482 662.3844,-275.2482"/>
</g>
<!-- mst -->
<g id="node12" class="node">
<title>mst</title>
<polygon fill="#ffffff" stroke="#000000" points="679.5,-350 572.5,-350 572.5,-354 560.5,-354 560.5,-314 679.5,-314 679.5,-350"/>
<polyline fill="none" stroke="#000000" points="560.5,-350 572.5,-350 "/>
<text text-anchor="middle" x="620" y="-328.3" font-family="Times,serif" font-size="14.00" fill="#000000">groph/minspantree</text>
</g>
<!-- aetc -->
<g id="node13" class="node">
<title>aetc</title>
<polygon fill="#ffffff" stroke="#000000" points="542,-350 500,-350 500,-354 488,-354 488,-314 542,-314 542,-350"/>
<polyline fill="none" stroke="#000000" points="488,-350 500,-350 "/>
<text text-anchor="middle" x="515" y="-328.3" font-family="Times,serif" font-size="14.00" fill="#000000">…</text>
</g>
<!-- aetc&#45;&gt;som -->
<g id="edge5" class="edge">
<title>aetc&#45;&gt;som</title>
<path fill="none" stroke="#000000" stroke-dasharray="5,2" d="M480.0023,-329.3639C436.9217,-325.8039 365.2601,-318.7884 330.8993,-309.2418"/>
<polygon fill="#000000" stroke="#000000" points="321,-306 331.9039,-304.8357 325.7517,-307.5561 330.5034,-309.1122 330.5034,-309.1122 330.5034,-309.1122 325.7517,-307.5561 329.1029,-313.3888 321,-306 321,-306"/>
</g>
</g>
</svg>
